<svg height="40" viewBox="0 0 280 40" width="280" xmlns="http://www.w3.org/2000/svg"><g fill="none" fill-rule="evenodd"><path d="M211.24 29V9.12h7.056c1.605 0 3.01.261 4.214.784 1.204.523 2.212 1.232 3.024 2.128s1.423 1.946 1.834 3.15.616 2.487.616 3.85c0 1.512-.229 2.88-.686 4.102s-1.106 2.268-1.946 3.136-1.857 1.54-3.052 2.016-2.53.714-4.004.714zm13.552-9.968c0-1.045-.145-2.007-.434-2.884s-.714-1.629-1.274-2.254-1.241-1.115-2.044-1.47-1.717-.532-2.744-.532h-3.92v14.336h3.92c1.045 0 1.974-.182 2.786-.546s1.493-.868 2.044-1.512.966-1.405 1.246-2.282.42-1.83.42-2.856zm12.684 10.248c-1.157 0-2.198-.205-3.122-.616s-1.713-.961-2.366-1.652-1.157-1.498-1.512-2.422-.532-1.89-.532-2.898.177-1.974.532-2.898.863-1.731 1.526-2.422 1.456-1.241 2.38-1.652 1.955-.616 3.094-.616 2.17.205 3.094.616 1.717.961 2.38 1.652 1.171 1.498 1.526 2.422.532 1.89.532 2.898-.177 1.974-.532 2.898-.863 1.731-1.526 2.422-1.456 1.241-2.38 1.652-1.955.616-3.094.616zm-4.368-7.56c0 .71.112 1.363.336 1.96s.532 1.115.924 1.554.854.784 1.386 1.036 1.106.378 1.722.378 1.19-.126 1.722-.378.994-.602 1.386-1.05.7-.97.924-1.568.336-1.25.336-1.96c0-.69-.112-1.34-.336-1.946s-.532-1.134-.924-1.582-.854-.798-1.386-1.05-1.106-.378-1.722-.378c-.597 0-1.162.13-1.694.392s-.994.616-1.386 1.064-.705.975-.938 1.582a5.374 5.374 0 0 0-.35 1.946zm13.692-.056c0-1.027.177-1.997.532-2.912s.863-1.717 1.526-2.408 1.46-1.237 2.394-1.638 1.979-.602 3.136-.602c1.512 0 2.814.331 3.906.994s1.909 1.545 2.45 2.646l-2.996.952c-.355-.616-.83-1.097-1.428-1.442s-1.26-.518-1.988-.518a4.1 4.1 0 0 0-3.108 1.386c-.392.439-.7.957-.924 1.554s-.336 1.26-.336 1.988c0 .71.117 1.367.35 1.974.233.607.55 1.134.952 1.582s.868.798 1.4 1.05 1.097.378 1.694.378c.373 0 .747-.051 1.12-.154a4.03 4.03 0 0 0 1.834-1.078c.233-.243.406-.504.518-.784l3.024.896c-.485 1.101-1.297 2.002-2.436 2.702s-2.483 1.05-4.032 1.05c-1.139 0-2.175-.205-3.108-.616s-1.731-.966-2.394-1.666-1.176-1.507-1.54-2.422-.546-1.885-.546-2.912zm21.924 7.616c-1.176 0-2.347-.191-3.514-.574-1.167-.383-2.17-.929-3.01-1.638l1.232-1.96c.877.635 1.745 1.115 2.604 1.442s1.736.49 2.632.49c.915 0 1.638-.177 2.17-.532s.798-.859.798-1.512c0-.616-.299-1.064-.896-1.344s-1.53-.588-2.8-.924c-.915-.243-1.699-.476-2.352-.7s-1.185-.485-1.596-.784-.71-.644-.896-1.036-.28-.868-.28-1.428c0-.747.145-1.41.434-1.988s.69-1.069 1.204-1.47 1.115-.705 1.806-.91 1.437-.308 2.24-.308c1.101 0 2.128.168 3.08.504s1.801.821 2.548 1.456l-1.316 1.848c-1.363-1.083-2.81-1.624-4.34-1.624-.784 0-1.442.163-1.974.49s-.798.845-.798 1.554c0 .299.056.55.168.756s.294.383.546.532.579.285.98.406.9.257 1.498.406c.99.243 1.843.485 2.562.728s1.311.527 1.778.854.812.71 1.036 1.148.336.966.336 1.582c0 1.4-.527 2.506-1.582 3.318s-2.487 1.218-4.298 1.218z" fill="#a2b0bd"/><path d="M73.147 18.173l10.703 11.44c.156.155.054.387-.154.387h-4.98l-8.062-8.788c-.092-.13-.286-.124-.378-.026L68 23.439V30h-4V8h4v9.21L77.583 8h5.05c.209 0 .291.175.135.331zM86 17.11V30h4V15.74l-3.596.845a.55.55 0 0 0-.404.524zm-.784-4.821l2.029 1.474c.19.104.416.139.606.052l1.786-.711a.338.338 0 0 0 .208-.225l.762-2.532c.052-.156-.017-.312-.156-.399l-2.097-1.266c-.156-.07-.33-.104-.503-.07l-1.75.469a.353.353 0 0 0-.243.225l-.815 2.55c-.017.173.035.346.173.433zM103.972 30l.028-8.416c0-2.376-.912-4.249-3.425-4.197-2.028.035-3.575 1.856-3.575 4.11V30h-3.983V15.376c0-.243.156-.451.399-.503l.97-.243 2.288-.52.07 2.08c1.595-1.56 2.825-2.358 4.801-2.358 3.693 0 6.455 2.775 6.455 7.7V30zm12.03-20.364V14h4.16l-.474 3.723a.31.31 0 0 1-.305.277H116v5.04c0 1.492.332 3.4 1.996 3.434.433.017.936-.104 1.387-.26.26-.104.52.052.641.312.087.225.364.798.555 1.145.572 1.005.85 1.352.85 1.352-1.128.66-2.306.954-3.693.954-3.779-.017-5.736-3.035-5.736-6.937V18h-3v-4h3v-3.046c0-.243.276-.451.5-.503zm22.668 12.312c0 4.526-3.086 8.185-8.183 8.185-5.096 0-8.147-3.659-8.147-8.185 0-4.491 3.12-8.185 8.113-8.185 5.01.017 8.216 3.711 8.216 8.185zm-12.256 0c0 2.393 1.265 4.786 4.09 4.786 2.826 0 4.091-2.393 4.091-4.786 0-2.358-1.473-4.82-4.09-4.82-2.809 0-4.091 2.479-4.091 4.82zM156 30v-9.249L146.182 22c-.122.017-.182.121-.182.243V30h-4V8h4v10.15l9.847-1.211c.104-.018.153-.159.153-.28V8h4v22zm11-14.538v6.85c0 2.376.457 4.145 3.265 4.197 1.785.034 3.735-1.856 3.735-4.11V15.08c0-.243.148-.45.373-.503L178 14.11V30h-3.47c-.192 0-.348-.318-.348-.509l-.069-1.803c-1.439 1.595-2.773 2.358-4.958 2.358-3.761 0-6.136-2.826-6.136-7.7V16.4a.52.52 0 0 1 .399-.503zM185 8v8.052c1.005-1.37 3.397-2.289 5.043-2.272 3.727.035 7.853 2.74 7.853 8.15 0 5.15-3.484 8.584-8.078 8.203-1.82-.156-3.71-1.3-4.715-2.515l-.087 1.839c-.017.19-.156.543-.346.543H181V8.842c0-.243.17-.448.478-.48zm.38 13.913c0 2.827 1.925 4.786 4.369 4.786 2.704 0 4.195-2.393 4.195-4.82 0-2.48-1.716-4.717-4.195-4.717-2.444 0-4.369 2.029-4.369 4.751z" fill="#fff" fill-rule="nonzero"/><path d="M45.787 12.879c-5.46-2.272-10.054-1.232-13.833.97 1.716 3.434 2.201 7.405 4.108 10.006 2.566 3.486 7.315 6.347 10.973 6.295 2.981-.034 4.61-1.977 4.94-2.514.017-.018.017-.035.035-.052v-.018a5.76 5.76 0 0 0 .659-1.803c.884-4.474-1.578-10.682-6.882-12.884z" fill="#ffdb18"/><path d="M11.274 29.231c4.628-.537 8.06-2.098 13.92-8.566 1.993-2.185 3.744-5.047 6.76-6.815C30.03 10 27.343 6.428 21.848 4.97 14.879 3.133 9.939 4.14 5.172 8.405 1.844 11.387.648 14.855.336 16.208c-.867 3.78.572 7.283 1.872 9.52.208.347 2.86 4.232 9.066 3.503z" fill="#1ec4e9"/><path d="M37.24 33.566c.07 0 .14-.017.226-.017.122-.017.226-.017.33-.035 2.114-.19 4.142-.468 5.945-.884l.26-.052c.052-.017.087-.017.139-.035 2.063-.503 3.727-1.196 5.062-2.08.017-.018.052-.035.069-.053.052-.034.087-.069.139-.104.034-.017.052-.034.086-.052.07-.052.122-.086.191-.138a9.092 9.092 0 0 0 1.837-1.804.24.24 0 0 0 .052-.07c.018-.017.018-.034.035-.051.139-.191.26-.382.381-.59-.329.538-1.681 2.064-4.663 2.098-3.657.052-8.077-2.687-10.643-6.19-1.907-2.601-2.999-6.26-4.715-9.694-2.999 1.769-5.495 4.266-7.488 6.468-5.86 6.451-8.893 7.925-13.521 8.463-6.206.728-8.546-2.706-8.754-3.035 0 .017.017.017.017.035.173.294 1.092 1.734 2.531 3.104.676.624 1.37 1.144 1.993 1.56 2.791 1.7 6.657 3.365 20.594 3.434 3.779.035 7.055-.052 9.898-.278z" fill="#00bc98"/></g></svg>