<svg width="54" height="30" viewBox="0 0 54 30" xmlns="http://www.w3.org/2000/svg"><g fill="none" fill-rule="evenodd"><path d="M45.787 8.879c-5.46-2.272-10.054-1.232-13.833.97 1.716 3.434 2.201 7.405 4.108 10.006 2.566 3.486 7.315 6.347 10.973 6.295 2.981-.034 4.61-1.977 4.94-2.514.017-.018.017-.035.035-.052v-.018a5.76 5.76 0 0 0 .659-1.803c.884-4.474-1.578-10.682-6.882-12.884z" fill="#FFDB18"/><path d="M11.274 25.231c4.628-.537 8.06-2.098 13.92-8.566 1.993-2.185 3.744-5.047 6.76-6.815C30.03 6 27.343 2.428 21.848.97 14.879-.867 9.939.14 5.172 4.405 1.844 7.387.648 10.855.336 12.208c-.867 3.78.572 7.283 1.872 9.52.208.347 2.86 4.232 9.066 3.503z" fill="#1EC4E9"/><path d="M37.24 29.566c.07 0 .14-.017.226-.017.122-.017.226-.017.33-.035 2.114-.19 4.142-.468 5.945-.884l.26-.052c.052-.017.087-.017.139-.035 2.063-.503 3.727-1.196 5.062-2.08.017-.018.052-.035.069-.053.052-.034.087-.069.139-.104.034-.017.052-.034.086-.052.07-.052.122-.086.191-.138a9.092 9.092 0 0 0 1.837-1.804.24.24 0 0 0 .052-.07c.018-.017.018-.034.035-.051.139-.191.26-.382.381-.59-.329.538-1.681 2.064-4.663 2.098-3.657.052-8.077-2.687-10.643-6.19-1.907-2.601-2.999-6.26-4.715-9.694-2.999 1.769-5.495 4.266-7.488 6.468-5.86 6.451-8.893 7.925-13.521 8.463-6.206.728-8.546-2.706-8.754-3.035 0 .017.017.017.017.035.173.294 1.092 1.734 2.531 3.104.676.624 1.37 1.144 1.993 1.56 2.791 1.7 6.657 3.365 20.594 3.434 3.779.035 7.055-.052 9.898-.278z" fill="#00BC98"/></g></svg>